<svg xmlns="http://www.w3.org/2000/svg" viewBox="0 0 750 850" width="750" height="850" style="background:#0f172a; font-family:sans-serif;">
  <defs>
    <linearGradient id="cellGrad" x1="0%" y1="0%" x2="100%" y2="100%">
      <stop offset="0%" stop-color="#6366f1" stop-opacity="0.18"/>
      <stop offset="100%" stop-color="#4338ca" stop-opacity="0.08"/>
    </linearGradient>
  </defs>

  <text x="40" y="45" fill="#f8fafc" font-size="22" font-weight="bold">LiphtUp Hex Zone Covering (11 Cells)</text>
  <text x="40" y="70" fill="#94a3b8" font-size="14">Axial (q, r) Hex Grid covering Limited Lipht Area (Unakoti &amp; North Tripura)</text>

  <!-- LLA Boundary Background -->
  <polygon points="392.9,195.1 599.8,125.4 583.8,681.8 454.4,634.5 150.2,737.0 168.1,113.0" fill="#38bdf8" fill-opacity="0.12" stroke="#38bdf8" stroke-width="3" stroke-dasharray="6,4"/>

  <!-- Hex Cells -->
  <polygon points="331.2,688.5 195.9,640.9 60.5,688.5 60.5,783.5 195.9,831.0 331.2,783.5" fill="url(#cellGrad)" stroke="#818cf8" stroke-width="1.8"/>
  <circle cx="195.9" cy="736.0" r="4" fill="#a5b4fc"/>
  <text x="195.9" y="728.0" fill="#ffffff" font-size="13" font-weight="bold" text-anchor="middle">Z01</text>
  <text x="195.9" y="750.0" fill="#cbd5e1" font-size="10" text-anchor="middle">(0,-2)</text>
  <polygon points="195.9,545.9 60.5,498.4 -74.9,545.9 -74.9,640.9 60.5,688.5 195.9,640.9" fill="url(#cellGrad)" stroke="#818cf8" stroke-width="1.8"/>
  <circle cx="60.5" cy="593.4" r="4" fill="#a5b4fc"/>
  <text x="60.5" y="585.4" fill="#ffffff" font-size="13" font-weight="bold" text-anchor="middle">Z02</text>
  <text x="60.5" y="607.4" fill="#cbd5e1" font-size="10" text-anchor="middle">(-1,-1)</text>
  <polygon points="466.6,545.9 331.2,498.4 195.9,545.9 195.9,640.9 331.2,688.5 466.6,640.9" fill="url(#cellGrad)" stroke="#818cf8" stroke-width="1.8"/>
  <circle cx="331.2" cy="593.4" r="4" fill="#a5b4fc"/>
  <text x="331.2" y="585.4" fill="#ffffff" font-size="13" font-weight="bold" text-anchor="middle">Z03</text>
  <text x="331.2" y="607.4" fill="#cbd5e1" font-size="10" text-anchor="middle">(0,-1)</text>
  <polygon points="737.4,545.9 602.0,498.4 466.6,545.9 466.6,640.9 602.0,688.5 737.4,640.9" fill="url(#cellGrad)" stroke="#818cf8" stroke-width="1.8"/>
  <circle cx="602.0" cy="593.4" r="4" fill="#a5b4fc"/>
  <text x="602.0" y="585.4" fill="#ffffff" font-size="13" font-weight="bold" text-anchor="middle">Z04</text>
  <text x="602.0" y="607.4" fill="#cbd5e1" font-size="10" text-anchor="middle">(1,-1)</text>
  <polygon points="331.2,403.4 195.9,355.8 60.5,403.4 60.5,498.4 195.9,545.9 331.2,498.4" fill="url(#cellGrad)" stroke="#818cf8" stroke-width="1.8"/>
  <circle cx="195.9" cy="450.9" r="4" fill="#a5b4fc"/>
  <text x="195.9" y="442.9" fill="#ffffff" font-size="13" font-weight="bold" text-anchor="middle">Z05</text>
  <text x="195.9" y="464.9" fill="#cbd5e1" font-size="10" text-anchor="middle">(-1,0)</text>
  <polygon points="602.0,403.4 466.6,355.8 331.2,403.4 331.2,498.4 466.6,545.9 602.0,498.4" fill="url(#cellGrad)" stroke="#818cf8" stroke-width="1.8"/>
  <circle cx="466.6" cy="450.9" r="4" fill="#a5b4fc"/>
  <text x="466.6" y="442.9" fill="#ffffff" font-size="13" font-weight="bold" text-anchor="middle">Z06</text>
  <text x="466.6" y="464.9" fill="#cbd5e1" font-size="10" text-anchor="middle">(0,0)</text>
  <polygon points="195.9,260.8 60.5,213.3 -74.9,260.8 -74.9,355.8 60.5,403.4 195.9,355.8" fill="url(#cellGrad)" stroke="#818cf8" stroke-width="1.8"/>
  <circle cx="60.5" cy="308.3" r="4" fill="#a5b4fc"/>
  <text x="60.5" y="300.3" fill="#ffffff" font-size="13" font-weight="bold" text-anchor="middle">Z07</text>
  <text x="60.5" y="322.3" fill="#cbd5e1" font-size="10" text-anchor="middle">(-2,1)</text>
  <polygon points="466.6,260.8 331.2,213.3 195.9,260.8 195.9,355.8 331.2,403.4 466.6,355.8" fill="url(#cellGrad)" stroke="#818cf8" stroke-width="1.8"/>
  <circle cx="331.2" cy="308.3" r="4" fill="#a5b4fc"/>
  <text x="331.2" y="300.3" fill="#ffffff" font-size="13" font-weight="bold" text-anchor="middle">Z08</text>
  <text x="331.2" y="322.3" fill="#cbd5e1" font-size="10" text-anchor="middle">(-1,1)</text>
  <polygon points="737.4,260.8 602.0,213.3 466.6,260.8 466.6,355.8 602.0,403.4 737.4,355.8" fill="url(#cellGrad)" stroke="#818cf8" stroke-width="1.8"/>
  <circle cx="602.0" cy="308.3" r="4" fill="#a5b4fc"/>
  <text x="602.0" y="300.3" fill="#ffffff" font-size="13" font-weight="bold" text-anchor="middle">Z09</text>
  <text x="602.0" y="322.3" fill="#cbd5e1" font-size="10" text-anchor="middle">(0,1)</text>
  <polygon points="331.2,118.3 195.9,70.8 60.5,118.3 60.5,213.3 195.9,260.8 331.2,213.3" fill="url(#cellGrad)" stroke="#818cf8" stroke-width="1.8"/>
  <circle cx="195.9" cy="165.8" r="4" fill="#a5b4fc"/>
  <text x="195.9" y="157.8" fill="#ffffff" font-size="13" font-weight="bold" text-anchor="middle">Z10</text>
  <text x="195.9" y="179.8" fill="#cbd5e1" font-size="10" text-anchor="middle">(-2,2)</text>
  <polygon points="602.0,118.3 466.6,70.8 331.2,118.3 331.2,213.3 466.6,260.8 602.0,213.3" fill="url(#cellGrad)" stroke="#818cf8" stroke-width="1.8"/>
  <circle cx="466.6" cy="165.8" r="4" fill="#a5b4fc"/>
  <text x="466.6" y="157.8" fill="#ffffff" font-size="13" font-weight="bold" text-anchor="middle">Z11</text>
  <text x="466.6" y="179.8" fill="#cbd5e1" font-size="10" text-anchor="middle">(-1,2)</text>

  <g transform="translate(40, 755)">
    <rect width="360" height="70" rx="8" fill="#1e293b" stroke="#334155"/>
    <line x1="15" y1="22" x2="30" y2="22" stroke="#38bdf8" stroke-width="3" stroke-dasharray="4,2"/>
    <text x="40" y="26" fill="#e2e8f0" font-size="12">Authoritative LLA Geofence Boundary</text>
    <rect x="15" y="42" width="16" height="16" rx="3" fill="#6366f1" fill-opacity="0.3" stroke="#818cf8" stroke-width="1.5"/>
    <text x="40" y="55" fill="#e2e8f0" font-size="12">Covering Hex Zones (11 Cells, s=21.6km)</text>
  </g>
</svg>